<svg xmlns="http://www.w3.org/2000/svg" xmlns:xlink="http://www.w3.org/1999/xlink" width="21" height="30" viewBox="0 0 21 30">
  <defs>
    <clipPath id="clip-path">
      <rect id="Rectangle_1" data-name="Rectangle 1" width="21" height="30" transform="translate(510 265)" fill="#54667a" stroke="#707070" stroke-width="1"/>
    </clipPath>
  </defs>
  <g id="About" transform="translate(-510 -265)" clip-path="url(#clip-path)">
    <g id="about_us" data-name="about us" transform="translate(510.001 269.5)">
      <path id="Path_36" data-name="Path 36" d="M12.5,24.491A10.5,10.5,0,1,1,23.027,14.028,10.5,10.5,0,0,1,12.5,24.491Zm2.4-5.461a2.741,2.741,0,0,1-.369.114,4.085,4.085,0,0,1-.866.1c-.575-.04-.806-.341-.7-.914.125-.663.288-1.318.449-1.974A11.994,11.994,0,0,0,14,13.676a1.608,1.608,0,0,0-.663-1.424,2.345,2.345,0,0,0-1.488-.365,6.91,6.91,0,0,0-2.225.621.164.164,0,0,0-.093.089c-.061.217-.114.438-.176.684.076-.02.1-.027.133-.036a2.348,2.348,0,0,1,1.258-.159.537.537,0,0,1,.507.54,2.369,2.369,0,0,1-.028.695c-.176.745-.374,1.485-.578,2.222a9.236,9.236,0,0,0-.427,2.092,1.62,1.62,0,0,0,1,1.591,2.765,2.765,0,0,0,1.705.139A16.767,16.767,0,0,0,14.63,19.8a.183.183,0,0,0,.1-.1C14.793,19.491,14.838,19.283,14.9,19.03Zm-1.44-8.5c.082,0,.166-.007.248-.015a1.5,1.5,0,0,0,1.277-1.957,1.628,1.628,0,0,0-1.856-1.01,1.545,1.545,0,0,0-1.289,1.5A1.565,1.565,0,0,0,13.458,10.529Z" transform="translate(-2.029 -3.491)" fill="#54667a"/>
      <path id="Path_37" data-name="Path 37" d="M14.9,19.03c-.06.253-.1.464-.162.671a.183.183,0,0,1-.1.1,15.642,15.642,0,0,1-1.705.564,2.765,2.765,0,0,1-1.705-.139,1.62,1.62,0,0,1-1-1.591,9.165,9.165,0,0,1,.427-2.092q.306-1.106.578-2.222a2.369,2.369,0,0,0,.028-.695.536.536,0,0,0-.507-.54,2.348,2.348,0,0,0-1.258.159c-.028.009-.057.016-.133.036.062-.247.114-.467.176-.684a.164.164,0,0,1,.093-.089,6.987,6.987,0,0,1,2.225-.621,2.315,2.315,0,0,1,1.482.366A1.589,1.589,0,0,1,14,13.678a12.076,12.076,0,0,1-.586,2.677c-.16.655-.324,1.311-.449,1.974-.107.573.122.872.7.914a4.085,4.085,0,0,0,.866-.1A2.741,2.741,0,0,0,14.9,19.03Z" transform="translate(-2.029 -3.491)" fill="#fff"/>
      <path id="Path_38" data-name="Path 38" d="M13.458,10.529a1.555,1.555,0,0,1-1.614-1.485,1.552,1.552,0,0,1,1.289-1.5,1.628,1.628,0,0,1,1.856,1.01,1.5,1.5,0,0,1-1.282,1.957C13.624,10.523,13.542,10.525,13.458,10.529Z" transform="translate(-2.029 -3.491)" fill="#fff"/>
    </g>
  </g>
</svg>
