<svg id="Capa_1" enable-background="new 0 0 512 512" height="512" viewBox="0 0 512 512" width="512" xmlns="http://www.w3.org/2000/svg"><g><path d="m327 0c-102.009 0-185 82.991-185 185 0 45.616 16.605 87.422 44.076 119.711l-35.031 35.031-10.607-10.607c-5.858-5.858-15.355-5.858-21.213 0l-106.066 106.066c-17.545 17.545-17.545 46.094 0 63.64 17.545 17.545 46.094 17.545 63.64 0l106.066-106.066c5.858-5.858 5.858-15.355 0-21.213l-10.607-10.607 35.031-35.031c32.289 27.471 74.095 44.076 119.711 44.076 102.009 0 185-82.991 185-185s-82.991-185-185-185zm-271.414 477.628c-5.849 5.848-15.365 5.848-21.213 0-5.848-5.849-5.848-15.365 0-21.213l24.749-24.749 21.213 21.213zm45.961-45.962-21.213-21.213 49.497-49.497 21.213 21.213zm225.453-91.666c-85.467 0-155-69.533-155-155s69.533-155 155-155 155 69.533 155 155-69.533 155-155 155z"/><path d="m407 110h-25v-15c0-19.299-15.701-35-35-35h-40c-19.299 0-35 15.701-35 35v15h-25c-19.299 0-35 15.701-35 35v110c0 19.299 15.701 35 35 35h160c19.299 0 35-15.701 35-35v-110c0-19.299-15.701-35-35-35zm-105-15c0-2.757 2.243-5 5-5h40c2.757 0 5 2.243 5 5v15h-50zm-60 50c0-2.757 2.243-5 5-5h160c2.757 0 5 2.243 5 5v15h-170zm165 115h-160c-2.757 0-5-2.243-5-5v-65h25v15c0 8.284 6.716 15 15 15s15-6.716 15-15v-15h60v15c0 8.284 6.716 15 15 15s15-6.716 15-15v-15h25v65c0 2.757-2.243 5-5 5z"/></g></svg>