<svg xmlns="http://www.w3.org/2000/svg" xmlns:xlink="http://www.w3.org/1999/xlink" width="21" height="30" viewBox="0 0 21 30">
  <defs>
    <clipPath id="clip-path">
      <rect id="Rectangle_1" data-name="Rectangle 1" width="21" height="30" transform="translate(756 265)" fill="#54667a" stroke="#707070" stroke-width="1"/>
    </clipPath>
  </defs>
  <g id="Contact_us" data-name="Contact us" transform="translate(-756 -265)" clip-path="url(#clip-path)">
    <g id="phone-call" transform="translate(755.978 269.478)">
      <g id="Group_44" data-name="Group 44" transform="translate(2.018 2.022)">
        <path id="Path_53" data-name="Path 53" d="M16.542,12.477,14.17,10.1a1.578,1.578,0,0,0-2.627.593,1.615,1.615,0,0,1-1.864,1.017A7.316,7.316,0,0,1,5.273,7.308,1.536,1.536,0,0,1,6.29,5.444a1.578,1.578,0,0,0,.593-2.627L4.51.445a1.692,1.692,0,0,0-2.288,0L.613,2.055C-1,3.749.782,8.24,4.764,12.222s8.473,5.846,10.168,4.152l1.61-1.61A1.692,1.692,0,0,0,16.542,12.477Z" transform="translate(0)" fill="#54667a"/>
      </g>
    </g>
  </g>
</svg>
