<svg xmlns="http://www.w3.org/2000/svg" xmlns:xlink="http://www.w3.org/1999/xlink" width="21" height="30" viewBox="0 0 21 30">
  <defs>
    <clipPath id="clip-path">
      <rect id="Rectangle_1" data-name="Rectangle 1" width="21" height="30" transform="translate(469 265)" fill="#54667a" stroke="#707070" stroke-width="1"/>
    </clipPath>
  </defs>
  <g id="Home" transform="translate(-469 -265)" clip-path="url(#clip-path)">
    <g id="home-2" data-name="home" transform="translate(469 269.5)">
      <g id="Group_24" data-name="Group 24">
        <g id="Group_23" data-name="Group 23">
          <path id="Path_34" data-name="Path 34" d="M20.647,9.388,11.225.8A1.072,1.072,0,0,0,9.775.8L.353,9.388a1.077,1.077,0,0,0,.725,1.873h1.5v8.6a.618.618,0,0,0,.618.618H8.365a.618.618,0,0,0,.618-.618V14.64h3.035v5.223a.618.618,0,0,0,.618.618H17.8a.618.618,0,0,0,.618-.618v-8.6h1.505a1.077,1.077,0,0,0,.725-1.873Z" fill="#54667a"/>
        </g>
      </g>
      <g id="Group_26" data-name="Group 26">
        <g id="Group_25" data-name="Group 25">
          <path id="Path_35" data-name="Path 35" d="M18.256,1.753H14.108l4.765,4.333V2.37A.618.618,0,0,0,18.256,1.753Z" fill="#54667a"/>
        </g>
      </g>
    </g>
  </g>
</svg>
