<svg xmlns="http://www.w3.org/2000/svg" xmlns:xlink="http://www.w3.org/1999/xlink" width="21" height="30" viewBox="0 0 21 30">
  <defs>
    <clipPath id="clip-path">
      <rect id="Rectangle_1" data-name="Rectangle 1" width="21" height="30" transform="translate(674 265)" fill="#54667a" stroke="#707070" stroke-width="1"/>
    </clipPath>
  </defs>
  <g id="Job_application" data-name="Job application" transform="translate(-674 -265)" clip-path="url(#clip-path)">
    <g id="Job_applications" data-name="Job applications" transform="translate(674.938 270.49)">
      <g id="Group_29" data-name="Group 29" transform="translate(0.407)">
        <g id="Group_28" data-name="Group 28">
          <path id="Path_45" data-name="Path 45" d="M12.43,1.271,12.341,0,.407.839,1.533,16.854l1.077-.076V2.965H15.689v14.8L17,17.91,18.717,1.948Z" transform="translate(-0.407)" fill="#54667a"/>
        </g>
      </g>
      <g id="Group_31" data-name="Group 31" transform="translate(3.725 4.08)">
        <g id="Group_30" data-name="Group 30">
          <path id="Path_46" data-name="Path 46" d="M4.213,4.68v14.94H15.061V4.68ZM7.787,7.222a1.9,1.9,0,0,1,1.576.7l-.748.667a.949.949,0,0,0-.768-.412.8.8,0,0,0-.823.878.8.8,0,0,0,.823.878.949.949,0,0,0,.768-.412l.748.667a1.9,1.9,0,0,1-1.576.7,1.84,1.84,0,1,1,0-3.673Zm5.487,10.041H6V16.148h7.273v1.115Zm0-1.984H6V14.164h7.273v1.115Zm0-1.984H6V12.18h7.273V13.3Zm-1.3-2.48H10.808L9.322,7.3H10.6l.838,2.052L12.293,7.3h1.164Z" transform="translate(-4.213 -4.68)" fill="#54667a"/>
        </g>
      </g>
    </g>
  </g>
</svg>
