<svg xmlns="http://www.w3.org/2000/svg" xmlns:xlink="http://www.w3.org/1999/xlink" width="21" height="30" viewBox="0 0 21 30">
  <defs>
    <clipPath id="clip-path">
      <rect id="Rectangle_1" data-name="Rectangle 1" width="21" height="30" transform="translate(428 265)" fill="#54667a" stroke="#54667a" stroke-width="1"/>
    </clipPath>
  </defs>
  <g id="Product_managment" data-name="Product managment" transform="translate(-428 -265)" clip-path="url(#clip-path)">
    <g id="Product_managment-2" data-name="Product managment" transform="translate(428 269.5)">
      <path id="Path_30" data-name="Path 30" d="M13.338,6.6H7.662l-.41,1.23h6.5Z" fill="#54667a"/>
      <path id="Path_31" data-name="Path 31" d="M12.346,9.064V10.91a.615.615,0,0,1-.615.615H9.27a.615.615,0,0,1-.615-.615V9.064H7.014v4.512h6.973V9.064Z" fill="#54667a"/>
      <path id="Path_32" data-name="Path 32" d="M9.885,9.064h1.23v1.23H9.885Z" fill="#54667a"/>
      <path id="Path_33" data-name="Path 33" d="M20.62,11.747,19.5,11.281a8.981,8.981,0,0,0,0-1.563l1.124-.465a.615.615,0,0,0,.333-.8L19.341,4.559a.615.615,0,0,0-.8-.333l-1.124.465a8.984,8.984,0,0,0-1.1-1.105l.465-1.123a.615.615,0,0,0-.333-.8L12.551.047a.615.615,0,0,0-.8.333L11.281,1.5a8.981,8.981,0,0,0-1.563,0L9.253.38a.615.615,0,0,0-.8-.333L4.559,1.659a.615.615,0,0,0-.333.8l.465,1.124a8.981,8.981,0,0,0-1.105,1.1L2.462,4.226a.615.615,0,0,0-.8.333L.047,8.449a.615.615,0,0,0,.333.8L1.5,9.719a8.981,8.981,0,0,0,0,1.563L.38,11.747a.615.615,0,0,0-.333.8l1.612,3.891a.615.615,0,0,0,.8.333l1.124-.465a8.984,8.984,0,0,0,1.1,1.105l-.465,1.123a.615.615,0,0,0,.333.8l3.891,1.612a.615.615,0,0,0,.8-.333L9.719,19.5a8.976,8.976,0,0,0,1.563,0l.465,1.124a.615.615,0,0,0,.8.333l3.891-1.612a.615.615,0,0,0,.333-.8l-.465-1.124a8.984,8.984,0,0,0,1.105-1.1l1.123.465a.615.615,0,0,0,.8-.333l1.612-3.891a.615.615,0,0,0-.333-.8Zm-5.4,2.445a.615.615,0,0,1-.615.615H6.4a.615.615,0,0,1-.615-.615V8.449a.615.615,0,0,1,.032-.195l.82-2.461a.615.615,0,0,1,.584-.421h6.562a.615.615,0,0,1,.584.421l.82,2.461a.615.615,0,0,1,.032.195Z" fill="#54667a"/>
    </g>
  </g>
</svg>
