<?xml version="1.0"?>
<svg xmlns="http://www.w3.org/2000/svg" viewBox="0 0 64 64" width="512" height="512"><g id="Branding_service" data-name="Branding service"><path d="M61,6H59V3a1,1,0,0,0-1-1H6A1,1,0,0,0,5,3V6H3A1,1,0,0,0,2,7V39a1,1,0,0,0,1,1H61a1,1,0,0,0,1-1V7A1,1,0,0,0,61,6ZM57,35H33V4H57ZM7,4H31V35H7ZM60,38H4V8H5V36a1,1,0,0,0,1,1H58a1,1,0,0,0,1-1V8h1Z"/><path d="M56,42H8a1,1,0,0,0-1,1v8a1,1,0,0,0,1,1H56a1,1,0,0,0,1-1V43A1,1,0,0,0,56,42Zm-1,8H9V44h2v2h2V44h2v2h2V44h2v2h2V44h2v2h2V44h2v2h2V44h2v2h2V44h2v2h2V44h2v2h2V44h2v2h2V44h2v2h2V44h2v2h2V44h2Z"/><path d="M52,54H15a1,1,0,0,0-.447.1l-6,3a1,1,0,0,0,0,1.79l6,3A1,1,0,0,0,15,62H52a4,4,0,0,0,0-8ZM18.414,59H44v1H17.414ZM44,57H18.414l-1-1H44Zm-29.2-.783L16.586,58,14.8,59.783,11.236,58ZM46,56h2v4H46Zm6,4H50V56h2a2,2,0,0,1,0,4Z"/><path d="M11,23a8,8,0,1,0,12.925-6.291l2.894-4.136A1,1,0,0,0,26,11H12a1,1,0,0,0-.819,1.573l2.894,4.136A7.983,7.983,0,0,0,11,23Zm2.92-10H24.08l-1.874,2.676a7.94,7.94,0,0,0-6.412,0Zm7.107,4.36L19,20.256l-2.027-2.9a5.887,5.887,0,0,1,4.054,0Zm-2.846,5.213a1,1,0,0,0,1.638,0l2.96-4.228a6,6,0,1,1-7.558,0Z"/><path d="M38,31H52a1,1,0,0,0,1-1V16a1,1,0,0,0-1-1h-.879l1.7-2.427A1,1,0,0,0,52,11H38a1,1,0,0,0-.819,1.573L38.879,15H38a1,1,0,0,0-1,1V30A1,1,0,0,0,38,31Zm1.92-18H50.08l-1.4,2H41.32Zm7.359,4L45,20.256,42.721,17Zm-3.1,5.573a1,1,0,0,0,1.638,0L49.721,17H51V29H39V17h1.279Z"/></g></svg>
