<svg xmlns="http://www.w3.org/2000/svg" xmlns:xlink="http://www.w3.org/1999/xlink" width="21" height="30" viewBox="0 0 21 30">
  <defs>
    <clipPath id="clip-path">
      <rect id="Rectangle_2" data-name="Rectangle 2" width="21" height="30" transform="translate(535 196)" fill="#54667a" stroke="#707070" stroke-width="1"/>
    </clipPath>
  </defs>
  <g id="Social_links" data-name="Social links" transform="translate(-535 -196)" clip-path="url(#clip-path)">
    <g id="Media_center_02" data-name="Media center 02" transform="translate(535 200.5)">
      <path id="Path_59" data-name="Path 59" d="M15.73,16.017a.812.812,0,1,0-.812-.812.813.813,0,0,0,.812.812Z" fill="#54667a"/>
      <path id="Path_60" data-name="Path 60" d="M15.73,17.247h0a1.944,1.944,0,0,0-1.941,1.942v1.441a5.292,5.292,0,0,0,3.884,0V19.19a1.944,1.944,0,0,0-1.942-1.942Z" fill="#54667a"/>
      <path id="Path_61" data-name="Path 61" d="M15.729,10.459A5.245,5.245,0,0,0,12.461,11.6L9.382,8.571l.027-.033a5.261,5.261,0,0,0,1.1-2.653h4.1a3.227,3.227,0,1,0,0-1.23H10.5A5.271,5.271,0,1,0,2.1,9.483V8.731A3.174,3.174,0,0,1,3.659,6,2.042,2.042,0,1,1,6.882,6,3.185,3.185,0,0,1,8.354,7.983a5.693,5.693,0,0,1,.089,1.5l3.143,2.993A5.245,5.245,0,0,0,10.5,15.114h-4.1a3.227,3.227,0,1,0,0,1.23h4.1a5.264,5.264,0,0,0,2.063,3.6V19.19a3.174,3.174,0,0,1,1.561-2.732,2.043,2.043,0,1,1,3.222,0A3.174,3.174,0,0,1,18.9,19.19v.752a5.273,5.273,0,0,0-3.173-9.483Z" fill="#54667a"/>
      <path id="Path_62" data-name="Path 62" d="M6.082,4.746a.812.812,0,1,0-.812.812.812.812,0,0,0,.812-.812Z" fill="#54667a"/>
      <path id="Path_63" data-name="Path 63" d="M3.328,8.731v1.441a5.292,5.292,0,0,0,3.884,0V8.731a1.942,1.942,0,1,0-3.884,0Z" fill="#54667a"/>
    </g>
  </g>
</svg>
