<svg xmlns="http://www.w3.org/2000/svg" xmlns:xlink="http://www.w3.org/1999/xlink" width="21" height="30" viewBox="0 0 21 30">
  <defs>
    <clipPath id="clip-path">
      <rect id="Rectangle_1" data-name="Rectangle 1" width="21" height="30" transform="translate(633 265)" fill="#54667a" stroke="#707070" stroke-width="1"/>
    </clipPath>
  </defs>
  <g id="Vacancies" transform="translate(-633 -265)" clip-path="url(#clip-path)">
    <g id="Vacancies-2" data-name="Vacancies" transform="translate(633 269.5)">
      <path id="Path_40" data-name="Path 40" d="M.863,15.961,4.415,12.41A9.38,9.38,0,0,0,8.59,16.586L5.039,20.137A2.953,2.953,0,0,1,.863,15.961Zm0,0" fill="#54667a" fill-rule="evenodd"/>
      <path id="Path_41" data-name="Path 41" d="M12.82,6.292a.893.893,0,1,1-.893.893A.894.894,0,0,1,12.82,6.292Zm0,0" fill="#54667a" fill-rule="evenodd"/>
      <path id="Path_42" data-name="Path 42" d="M9.264,11.736a5.054,5.054,0,0,0,.649.548V11.191a1.418,1.418,0,0,1,.433-1.021,1.448,1.448,0,0,1,1.018-.417h2.926a1.439,1.439,0,0,1,1.438,1.438v1.094a5.028,5.028,0,1,0-6.461-.547ZM10.7,7.185A2.123,2.123,0,1,1,12.82,9.308,2.126,2.126,0,0,1,10.7,7.185Zm0,0" fill="#54667a" fill-rule="evenodd"/>
      <path id="Path_43" data-name="Path 43" d="M7.035,13.965a8.18,8.18,0,1,0-2.4-5.784,8.154,8.154,0,0,0,2.4,5.784Zm1.359-1.359a6.265,6.265,0,1,1,4.425,1.83A6.265,6.265,0,0,1,8.395,12.606Zm0,0" fill="#54667a" fill-rule="evenodd"/>
      <path id="Path_44" data-name="Path 44" d="M14.5,11.189a.21.21,0,0,0-.207-.207H11.363a.221.221,0,0,0-.22.207v1.729a5.048,5.048,0,0,0,3.352,0Zm0,0" fill="#54667a" fill-rule="evenodd"/>
    </g>
  </g>
</svg>
